# xmcd CD database file
#
# Track frame offsets:
#	150
#	22562
#	41316
#	64237
#	90219
#	108350
#	125517
#	148795
#	171825
#	189100
#	206119
#	229742
#
# Disc length: 3397 seconds
#
# Revision: 0
# Processed by: cddbd v1.5.2PL0 Copyright (c) Steve Scherf et al.
# Submitted via: CDex 1.50
#
DISCID=930d430c
DTITLE=Hadi Teherani - Lounge Music Vol. 1
DYEAR=2005
DGENRE=Jazz
TTITLE0=El Sueno Del Mar
TTITLE1=Enjoy Your Live
TTITLE2=Journey To Mandurai
TTITLE3=Oriental Mood
TTITLE4=La Princessa Del Marte
TTITLE5=Spirit Of Ashram
TTITLE6=Sudden Moments
TTITLE7=Inner Lights
TTITLE8=Eastern Promises
TTITLE9=Glas Reflections (Hadi Teherani Mix)
TTITLE10=True Love
TTITLE11=Into My Dream
EXTD=YEAR: 2005
EXTT0=
EXTT1=
EXTT2=
EXTT3=
EXTT4=
EXTT5=
EXTT6=
EXTT7=
EXTT8=
EXTT9=
EXTT10=
EXTT11=
PLAYORDER=
